<?xml version="1.0" encoding="UTF-8" standalone="no"?>
<!-- Created with Inkscape (http://www.inkscape.org/) -->

<svg
   width="877"
   height="968"
   viewBox="0 0 232.03958 256.11667"
   version="1.1"
   id="svg5"
   inkscape:version="1.2.2 (b0a8486541, 2022-12-01)"
   sodipodi:docname="background_03.svg"
   xmlns:inkscape="http://www.inkscape.org/namespaces/inkscape"
   xmlns:sodipodi="http://sodipodi.sourceforge.net/DTD/sodipodi-0.dtd"
   xmlns:xlink="http://www.w3.org/1999/xlink"
   xmlns="http://www.w3.org/2000/svg"
   xmlns:svg="http://www.w3.org/2000/svg">
  <sodipodi:namedview
     id="namedview7"
     pagecolor="#505050"
     bordercolor="#ffffff"
     borderopacity="1"
     inkscape:showpageshadow="0"
     inkscape:pageopacity="0"
     inkscape:pagecheckerboard="1"
     inkscape:deskcolor="#505050"
     inkscape:document-units="mm"
     showgrid="false"
     inkscape:zoom="0.702883"
     inkscape:cx="374.88458"
     inkscape:cy="562.68255"
     inkscape:window-width="1920"
     inkscape:window-height="1011"
     inkscape:window-x="0"
     inkscape:window-y="0"
     inkscape:window-maximized="1"
     inkscape:current-layer="layer1" />
  <defs
     id="defs2">
    <linearGradient
       inkscape:collect="always"
       id="linearGradient3026">
      <stop
         style="stop-color:#ffaaaa;stop-opacity:1;"
         offset="0"
         id="stop3022" />
      <stop
         style="stop-color:#ffaaaa;stop-opacity:0;"
         offset="1"
         id="stop3024" />
    </linearGradient>
    <linearGradient
       inkscape:collect="always"
       xlink:href="#linearGradient3026"
       id="linearGradient3028"
       x1="219.50188"
       y1="232.90778"
       x2="19.467199"
       y2="23.27401"
       gradientUnits="userSpaceOnUse" />
  </defs>
  <g
     inkscape:label="Layer 1"
     inkscape:groupmode="layer"
     id="layer1">
    <path
       sodipodi:type="spiral"
       style="fill:url(#linearGradient3028);fill-rule:evenodd;stroke:#000000;stroke-width:0.264583;fill-opacity:1"
       id="path2243"
       sodipodi:cx="115.08191"
       sodipodi:cy="119.04173"
       sodipodi:expansion="1"
       sodipodi:revolution="3.257355"
       sodipodi:radius="123.30233"
       sodipodi:argument="-17.977413"
       sodipodi:t0="0"
       d="m 115.08191,119.04173 c 3.66214,4.35975 -4.07009,7.08745 -7.24619,6.08673 -8.607061,-2.71189 -9.040339,-14.07621 -4.92726,-20.57911 7.35733,-11.632167 23.83631,-11.636768 33.91203,-3.76779 14.78651,11.54804 14.32338,33.7336 2.60832,47.24494 -15.61433,18.0085 -43.680216,17.04921 -60.577865,1.44886 C 57.586979,129.8439 59.055457,95.824868 78.56156,75.564576 102.18606,51.026647 142.19568,53.010938 165.80526,76.434659 193.62833,104.0387 191.1245,150.06074 163.77571,177.01128 132.20044,208.12673 80.152097,205.1011 49.866174,173.82226 15.453382,138.28124 19.002289,80.197216 54.214661,46.579805 93.717621,8.86615 157.84398,12.939336 194.79003,52.08776 c 41.01712,43.46217 36.41894,113.63574 -6.66742,153.90829 -47.41934,44.32255 -123.643814,39.19886 -167.241208,-7.82689 -1.291413,-1.39297 -2.55052,-2.81589 -3.776045,-4.26716"
       transform="matrix(1.0904975,0,0,1.1422417,-14.981145,-20.054438)" />
  </g>
</svg>
